<mxfile host="" modified="2020-05-24T15:21:41.060Z" agent="5.0 (X11; Linux x86_64) AppleWebKit/537.36 (KHTML, like Gecko) Code/1.45.0 Chrome/78.0.3904.130 Electron/7.2.4 Safari/537.36" version="13.1.3" etag="lrwgP8mNOWNbAz78NI_h" pages="2">
            <diagram id="diagramid" name="Diagram">
              <mxGraphModel><root><mxCell id="0"/><mxCell id="1" parent="0"/><mxCell id="2" value="InputValidatorFunction" style="outlineConnect=0;fontColor=#B3B3B3;gradientColor=#F78E04;gradientDirection=north;fillColor=#D05C17;strokeColor=#ffffff;dashed=0;verticalLabelPosition=bottom;verticalAlign=top;align=center;html=1;fontSize=12;fontStyle=0;aspect=fixed;shape=mxgraph.aws4.resourceIcon;resIcon=mxgraph.aws4.lambda;" vertex="1" parent="1"><mxGeometry x="1000" width="50" height="50" as="geometry"/></mxCell><mxCell id="3" value="InputValidatortRole" style="outlineConnect=0;fontColor=#B3B3B3;gradientColor=#F54749;gradientDirection=north;fillColor=#C7131F;strokeColor=#ffffff;dashed=0;verticalLabelPosition=bottom;verticalAlign=top;align=center;html=1;fontSize=12;fontStyle=0;aspect=fixed;shape=mxgraph.aws4.resourceIcon;resIcon=mxgraph.aws4.role;" vertex="1" parent="1"><mxGeometry x="1250" y="150" width="50" height="50" as="geometry"/></mxCell><mxCell id="4" value="AccountCreatorFunction" style="outlineConnect=0;fontColor=#B3B3B3;gradientColor=#F78E04;gradientDirection=north;fillColor=#D05C17;strokeColor=#ffffff;dashed=0;verticalLabelPosition=bottom;verticalAlign=top;align=center;html=1;fontSize=12;fontStyle=0;aspect=fixed;shape=mxgraph.aws4.resourceIcon;resIcon=mxgraph.aws4.lambda;" vertex="1" parent="1"><mxGeometry x="1000" y="400" width="50" height="50" as="geometry"/></mxCell><mxCell id="5" value="AccountCreatorRole" style="outlineConnect=0;fontColor=#B3B3B3;gradientColor=#F54749;gradientDirection=north;fillColor=#C7131F;strokeColor=#ffffff;dashed=0;verticalLabelPosition=bottom;verticalAlign=top;align=center;html=1;fontSize=12;fontStyle=0;aspect=fixed;shape=mxgraph.aws4.resourceIcon;resIcon=mxgraph.aws4.role;" vertex="1" parent="1"><mxGeometry x="1250" y="250" width="50" height="50" as="geometry"/></mxCell><mxCell id="6" value="AccountWaiterFunction" style="outlineConnect=0;fontColor=#B3B3B3;gradientColor=#F78E04;gradientDirection=north;fillColor=#D05C17;strokeColor=#ffffff;dashed=0;verticalLabelPosition=bottom;verticalAlign=top;align=center;html=1;fontSize=12;fontStyle=0;aspect=fixed;shape=mxgraph.aws4.resourceIcon;resIcon=mxgraph.aws4.lambda;" vertex="1" parent="1"><mxGeometry x="1000" y="500" width="50" height="50" as="geometry"/></mxCell><mxCell id="7" value="AccountWaiterRole" style="outlineConnect=0;fontColor=#B3B3B3;gradientColor=#F54749;gradientDirection=north;fillColor=#C7131F;strokeColor=#ffffff;dashed=0;verticalLabelPosition=bottom;verticalAlign=top;align=center;html=1;fontSize=12;fontStyle=0;aspect=fixed;shape=mxgraph.aws4.resourceIcon;resIcon=mxgraph.aws4.role;" vertex="1" parent="1"><mxGeometry x="1250" y="350" width="50" height="50" as="geometry"/></mxCell><mxCell id="8" value="ControlTowerAccountCreatorFunction" style="outlineConnect=0;fontColor=#B3B3B3;gradientColor=#F78E04;gradientDirection=north;fillColor=#D05C17;strokeColor=#ffffff;dashed=0;verticalLabelPosition=bottom;verticalAlign=top;align=center;html=1;fontSize=12;fontStyle=0;aspect=fixed;shape=mxgraph.aws4.resourceIcon;resIcon=mxgraph.aws4.lambda;" vertex="1" parent="1"><mxGeometry x="1000" y="600" width="50" height="50" as="geometry"/></mxCell><mxCell id="9" value="ControlTowerAccountCreatorRole" style="outlineConnect=0;fontColor=#B3B3B3;gradientColor=#F54749;gradientDirection=north;fillColor=#C7131F;strokeColor=#ffffff;dashed=0;verticalLabelPosition=bottom;verticalAlign=top;align=center;html=1;fontSize=12;fontStyle=0;aspect=fixed;shape=mxgraph.aws4.resourceIcon;resIcon=mxgraph.aws4.role;" vertex="1" parent="1"><mxGeometry x="1250" y="450" width="50" height="50" as="geometry"/></mxCell><mxCell id="10" value="ControlTowerAccountWaiterFunction" style="outlineConnect=0;fontColor=#B3B3B3;gradientColor=#F78E04;gradientDirection=north;fillColor=#D05C17;strokeColor=#ffffff;dashed=0;verticalLabelPosition=bottom;verticalAlign=top;align=center;html=1;fontSize=12;fontStyle=0;aspect=fixed;shape=mxgraph.aws4.resourceIcon;resIcon=mxgraph.aws4.lambda;" vertex="1" parent="1"><mxGeometry x="1000" y="700" width="50" height="50" as="geometry"/></mxCell><mxCell id="11" value="ControlTowerAccountWaiterRole" style="outlineConnect=0;fontColor=#B3B3B3;gradientColor=#F54749;gradientDirection=north;fillColor=#C7131F;strokeColor=#ffffff;dashed=0;verticalLabelPosition=bottom;verticalAlign=top;align=center;html=1;fontSize=12;fontStyle=0;aspect=fixed;shape=mxgraph.aws4.resourceIcon;resIcon=mxgraph.aws4.role;" vertex="1" parent="1"><mxGeometry x="1250" y="550" width="50" height="50" as="geometry"/></mxCell><mxCell id="12" value="SubscriptionWaiterFunction" style="outlineConnect=0;fontColor=#B3B3B3;gradientColor=#F78E04;gradientDirection=north;fillColor=#D05C17;strokeColor=#ffffff;dashed=0;verticalLabelPosition=bottom;verticalAlign=top;align=center;html=1;fontSize=12;fontStyle=0;aspect=fixed;shape=mxgraph.aws4.resourceIcon;resIcon=mxgraph.aws4.lambda;" vertex="1" parent="1"><mxGeometry x="1000" y="800" width="50" height="50" as="geometry"/></mxCell><mxCell id="13" value="SubscriptionWaiterRole" style="outlineConnect=0;fontColor=#B3B3B3;gradientColor=#F54749;gradientDirection=north;fillColor=#C7131F;strokeColor=#ffffff;dashed=0;verticalLabelPosition=bottom;verticalAlign=top;align=center;html=1;fontSize=12;fontStyle=0;aspect=fixed;shape=mxgraph.aws4.resourceIcon;resIcon=mxgraph.aws4.role;" vertex="1" parent="1"><mxGeometry x="1250" y="650" width="50" height="50" as="geometry"/></mxCell><mxCell id="14" value="StateMachine" style="outlineConnect=0;fontColor=#B3B3B3;gradientColor=#F34482;gradientDirection=north;fillColor=#BC1356;strokeColor=#ffffff;dashed=0;verticalLabelPosition=bottom;verticalAlign=top;align=center;html=1;fontSize=12;fontStyle=0;aspect=fixed;shape=mxgraph.aws4.resourceIcon;resIcon=mxgraph.aws4.step_functions;" vertex="1" parent="1"><mxGeometry x="500" y="250" width="50" height="50" as="geometry"/></mxCell><mxCell id="15" value="StateMachineRole" style="outlineConnect=0;fontColor=#B3B3B3;gradientColor=#F54749;gradientDirection=north;fillColor=#C7131F;strokeColor=#ffffff;dashed=0;verticalLabelPosition=bottom;verticalAlign=top;align=center;html=1;fontSize=12;fontStyle=0;aspect=fixed;shape=mxgraph.aws4.resourceIcon;resIcon=mxgraph.aws4.role;" vertex="1" parent="1"><mxGeometry x="750" y="300" width="50" height="50" as="geometry"/></mxCell><mxCell id="16" value="AccountCreationCustomResourceBackerRole" style="outlineConnect=0;fontColor=#B3B3B3;gradientColor=#F54749;gradientDirection=north;fillColor=#C7131F;strokeColor=#ffffff;dashed=0;verticalLabelPosition=bottom;verticalAlign=top;align=center;html=1;fontSize=12;fontStyle=0;aspect=fixed;shape=mxgraph.aws4.resourceIcon;resIcon=mxgraph.aws4.role;" vertex="1" parent="1"><mxGeometry x="250" y="391.2037037037037" width="50" height="50" as="geometry"/></mxCell><mxCell id="17" value="AccountCreationCustomResourceBacker" style="outlineConnect=0;fontColor=#B3B3B3;gradientColor=#F78E04;gradientDirection=north;fillColor=#D05C17;strokeColor=#ffffff;dashed=0;verticalLabelPosition=bottom;verticalAlign=top;align=center;html=1;fontSize=12;fontStyle=0;aspect=fixed;shape=mxgraph.aws4.resourceIcon;resIcon=mxgraph.aws4.lambda;" vertex="1" parent="1"><mxGeometry y="344.9074074074074" width="50" height="50" as="geometry"/></mxCell><mxCell id="18" value="iam  aws&#xA;policy/service-role/awslambdabasicexecutionrole" style="outlineConnect=0;fontColor=#B3B3B3;gradientColor=#aaaaaa;gradientDirection=north;fillColor=#aaaaaa;strokeColor=#ffffff;dashed=0;verticalLabelPosition=bottom;verticalAlign=top;align=center;html=1;fontSize=12;fontStyle=0;aspect=fixed;shape=mxgraph.aws4.resourceIcon;resIcon=mxgraph.aws4.identity_and_access_management;" vertex="1" parent="1"><mxGeometry x="1500" y="450" width="50" height="50" as="geometry"/></mxCell><mxCell id="19" value="codebuild  &#xA;project/servicecatalog-puppet-bootstrap-spoke" style="outlineConnect=0;fontColor=#B3B3B3;gradientColor=#aaaaaa;gradientDirection=north;fillColor=#aaaaaa;strokeColor=#ffffff;dashed=0;verticalLabelPosition=bottom;verticalAlign=top;align=center;html=1;fontSize=12;fontStyle=0;aspect=fixed;shape=mxgraph.aws4.resourceIcon;resIcon=mxgraph.aws4.codebuild;" vertex="1" parent="1"><mxGeometry x="1000" y="100" width="50" height="50" as="geometry"/></mxCell><mxCell id="20" value="codebuild  &#xA;project/servicecatalog-puppet-single-account-run" style="outlineConnect=0;fontColor=#B3B3B3;gradientColor=#aaaaaa;gradientDirection=north;fillColor=#aaaaaa;strokeColor=#ffffff;dashed=0;verticalLabelPosition=bottom;verticalAlign=top;align=center;html=1;fontSize=12;fontStyle=0;aspect=fixed;shape=mxgraph.aws4.resourceIcon;resIcon=mxgraph.aws4.codebuild;" vertex="1" parent="1"><mxGeometry x="1000" y="200" width="50" height="50" as="geometry"/></mxCell><mxCell id="21" value="events  &#xA;rule/stepfunctionsgeteventforcodebuildstartbuildrule" style="outlineConnect=0;fontColor=#B3B3B3;gradientColor=#aaaaaa;gradientDirection=north;fillColor=#aaaaaa;strokeColor=#ffffff;dashed=0;verticalLabelPosition=bottom;verticalAlign=top;align=center;html=1;fontSize=12;fontStyle=0;aspect=fixed;shape=mxgraph.aws4.resourceIcon;resIcon=mxgraph.aws4.eventbridge;" vertex="1" parent="1"><mxGeometry x="1000" y="300" width="50" height="50" as="geometry"/></mxCell><mxCell id="22" value="states  &#xA;*" style="outlineConnect=0;fontColor=#B3B3B3;gradientColor=#aaaaaa;gradientDirection=north;fillColor=#aaaaaa;strokeColor=#ffffff;dashed=0;verticalLabelPosition=bottom;verticalAlign=top;align=center;html=1;fontSize=12;fontStyle=0;aspect=fixed;shape=mxgraph.aws4.resourceIcon;resIcon=mxgraph.aws4.states;" vertex="1" parent="1"><mxGeometry x="500" y="400" width="50" height="50" as="geometry"/></mxCell><mxCell id="InputValidatortRole|InputValidatorFunction" value="" style="edgeStyle=orthogonalEdgeStyle;rounded=1;orthogonalLoop=1;jettySize=auto;html=1;labelBackgroundColor=none;fontColor=#EA6B66;noEdgeStyle=1;orthogonal=1;" edge="1" parent="1" source="2" target="3"><mxGeometry relative="1" as="geometry"><Array as="points"><mxPoint x="1062" y="25"/><mxPoint x="1238" y="175"/></Array></mxGeometry></mxCell><mxCell id="iam  aws&#xA;policy/service-role/awslambdabasicexecutionrole|InputValidatortRole" value="" style="edgeStyle=orthogonalEdgeStyle;rounded=1;orthogonalLoop=1;jettySize=auto;html=1;labelBackgroundColor=none;fontColor=#EA6B66;noEdgeStyle=1;orthogonal=1;" edge="1" parent="1" source="3" target="18"><mxGeometry relative="1" as="geometry"><Array as="points"><mxPoint x="1312" y="175"/><mxPoint x="1488" y="453.57142857142856"/></Array></mxGeometry></mxCell><mxCell id="AccountCreatorRole|AccountCreatorFunction" value="" style="edgeStyle=orthogonalEdgeStyle;rounded=1;orthogonalLoop=1;jettySize=auto;html=1;labelBackgroundColor=none;fontColor=#EA6B66;noEdgeStyle=1;orthogonal=1;" edge="1" parent="1" source="4" target="5"><mxGeometry relative="1" as="geometry"><Array as="points"><mxPoint x="1062" y="425"/><mxPoint x="1238" y="275"/></Array></mxGeometry></mxCell><mxCell id="iam  aws&#xA;policy/service-role/awslambdabasicexecutionrole|AccountCreatorRole" value="" style="edgeStyle=orthogonalEdgeStyle;rounded=1;orthogonalLoop=1;jettySize=auto;html=1;labelBackgroundColor=none;fontColor=#EA6B66;noEdgeStyle=1;orthogonal=1;" edge="1" parent="1" source="5" target="18"><mxGeometry relative="1" as="geometry"><Array as="points"><mxPoint x="1312" y="275"/><mxPoint x="1486" y="460.7142857142857"/></Array></mxGeometry></mxCell><mxCell id="AccountWaiterRole|AccountWaiterFunction" value="" style="edgeStyle=orthogonalEdgeStyle;rounded=1;orthogonalLoop=1;jettySize=auto;html=1;labelBackgroundColor=none;fontColor=#EA6B66;noEdgeStyle=1;orthogonal=1;" edge="1" parent="1" source="6" target="7"><mxGeometry relative="1" as="geometry"><Array as="points"><mxPoint x="1062" y="525"/><mxPoint x="1238" y="375"/></Array></mxGeometry></mxCell><mxCell id="iam  aws&#xA;policy/service-role/awslambdabasicexecutionrole|AccountWaiterRole" value="" style="edgeStyle=orthogonalEdgeStyle;rounded=1;orthogonalLoop=1;jettySize=auto;html=1;labelBackgroundColor=none;fontColor=#EA6B66;noEdgeStyle=1;orthogonal=1;" edge="1" parent="1" source="7" target="18"><mxGeometry relative="1" as="geometry"><Array as="points"><mxPoint x="1312" y="375"/><mxPoint x="1484" y="467.8571428571429"/></Array></mxGeometry></mxCell><mxCell id="ControlTowerAccountCreatorRole|ControlTowerAccountCreatorFunction" value="" style="edgeStyle=orthogonalEdgeStyle;rounded=1;orthogonalLoop=1;jettySize=auto;html=1;labelBackgroundColor=none;fontColor=#EA6B66;noEdgeStyle=1;orthogonal=1;" edge="1" parent="1" source="8" target="9"><mxGeometry relative="1" as="geometry"><Array as="points"><mxPoint x="1062" y="625"/><mxPoint x="1238" y="475"/></Array></mxGeometry></mxCell><mxCell id="iam  aws&#xA;policy/service-role/awslambdabasicexecutionrole|ControlTowerAccountCreatorRole" value="" style="edgeStyle=orthogonalEdgeStyle;rounded=1;orthogonalLoop=1;jettySize=auto;html=1;labelBackgroundColor=none;fontColor=#EA6B66;noEdgeStyle=1;orthogonal=1;" edge="1" parent="1" source="9" target="18"><mxGeometry relative="1" as="geometry"><Array as="points"><mxPoint x="1312" y="475"/><mxPoint x="1482" y="475.00000000000006"/></Array></mxGeometry></mxCell><mxCell id="ControlTowerAccountWaiterRole|ControlTowerAccountWaiterFunction" value="" style="edgeStyle=orthogonalEdgeStyle;rounded=1;orthogonalLoop=1;jettySize=auto;html=1;labelBackgroundColor=none;fontColor=#EA6B66;noEdgeStyle=1;orthogonal=1;" edge="1" parent="1" source="10" target="11"><mxGeometry relative="1" as="geometry"><Array as="points"><mxPoint x="1062" y="725"/><mxPoint x="1238" y="575"/></Array></mxGeometry></mxCell><mxCell id="iam  aws&#xA;policy/service-role/awslambdabasicexecutionrole|ControlTowerAccountWaiterRole" value="" style="edgeStyle=orthogonalEdgeStyle;rounded=1;orthogonalLoop=1;jettySize=auto;html=1;labelBackgroundColor=none;fontColor=#EA6B66;noEdgeStyle=1;orthogonal=1;" edge="1" parent="1" source="11" target="18"><mxGeometry relative="1" as="geometry"><Array as="points"><mxPoint x="1312" y="575"/><mxPoint x="1484" y="482.1428571428572"/></Array></mxGeometry></mxCell><mxCell id="SubscriptionWaiterRole|SubscriptionWaiterFunction" value="" style="edgeStyle=orthogonalEdgeStyle;rounded=1;orthogonalLoop=1;jettySize=auto;html=1;labelBackgroundColor=none;fontColor=#EA6B66;noEdgeStyle=1;orthogonal=1;" edge="1" parent="1" source="12" target="13"><mxGeometry relative="1" as="geometry"><Array as="points"><mxPoint x="1062" y="825"/><mxPoint x="1238" y="675"/></Array></mxGeometry></mxCell><mxCell id="iam  aws&#xA;policy/service-role/awslambdabasicexecutionrole|SubscriptionWaiterRole" value="" style="edgeStyle=orthogonalEdgeStyle;rounded=1;orthogonalLoop=1;jettySize=auto;html=1;labelBackgroundColor=none;fontColor=#EA6B66;noEdgeStyle=1;orthogonal=1;" edge="1" parent="1" source="13" target="18"><mxGeometry relative="1" as="geometry"><Array as="points"><mxPoint x="1312" y="675"/><mxPoint x="1486" y="489.2857142857144"/></Array></mxGeometry></mxCell><mxCell id="StateMachineRole|StateMachine" value="" style="edgeStyle=orthogonalEdgeStyle;rounded=1;orthogonalLoop=1;jettySize=auto;html=1;labelBackgroundColor=none;fontColor=#EA6B66;noEdgeStyle=1;orthogonal=1;" edge="1" parent="1" source="14" target="15"><mxGeometry relative="1" as="geometry"><Array as="points"><mxPoint x="564" y="260.7142857142857"/><mxPoint x="738" y="325"/></Array></mxGeometry></mxCell><mxCell id="InputValidatorFunction|StateMachine" value="" style="edgeStyle=orthogonalEdgeStyle;rounded=1;orthogonalLoop=1;jettySize=auto;html=1;labelBackgroundColor=none;fontColor=#EA6B66;noEdgeStyle=1;orthogonal=1;" edge="1" parent="1" source="14" target="2"><mxGeometry relative="1" as="geometry"><Array as="points"><mxPoint x="562" y="253.57142857142858"/><mxPoint x="650" y="150"/><mxPoint x="900" y="150"/><mxPoint x="988" y="15"/></Array></mxGeometry></mxCell><mxCell id="AccountCreatorFunction|StateMachine" value="" style="edgeStyle=orthogonalEdgeStyle;rounded=1;orthogonalLoop=1;jettySize=auto;html=1;labelBackgroundColor=none;fontColor=#EA6B66;noEdgeStyle=1;orthogonal=1;" edge="1" parent="1" source="14" target="4"><mxGeometry relative="1" as="geometry"><Array as="points"><mxPoint x="566" y="267.8571428571429"/><mxPoint x="650" y="400"/><mxPoint x="900" y="400"/><mxPoint x="988" y="435"/></Array></mxGeometry></mxCell><mxCell id="AccountWaiterFunction|StateMachine" value="" style="edgeStyle=orthogonalEdgeStyle;rounded=1;orthogonalLoop=1;jettySize=auto;html=1;labelBackgroundColor=none;fontColor=#EA6B66;noEdgeStyle=1;orthogonal=1;" edge="1" parent="1" source="14" target="6"><mxGeometry relative="1" as="geometry"><Array as="points"><mxPoint x="568" y="275.00000000000006"/><mxPoint x="650" y="450"/><mxPoint x="900" y="450"/><mxPoint x="988" y="535"/></Array></mxGeometry></mxCell><mxCell id="ControlTowerAccountCreatorFunction|StateMachine" value="" style="edgeStyle=orthogonalEdgeStyle;rounded=1;orthogonalLoop=1;jettySize=auto;html=1;labelBackgroundColor=none;fontColor=#EA6B66;noEdgeStyle=1;orthogonal=1;" edge="1" parent="1" source="14" target="8"><mxGeometry relative="1" as="geometry"><Array as="points"><mxPoint x="566" y="282.1428571428572"/><mxPoint x="650" y="500"/><mxPoint x="900" y="500"/><mxPoint x="988" y="635"/></Array></mxGeometry></mxCell><mxCell id="ControlTowerAccountWaiterFunction|StateMachine" value="" style="edgeStyle=orthogonalEdgeStyle;rounded=1;orthogonalLoop=1;jettySize=auto;html=1;labelBackgroundColor=none;fontColor=#EA6B66;noEdgeStyle=1;orthogonal=1;" edge="1" parent="1" source="14" target="10"><mxGeometry relative="1" as="geometry"><Array as="points"><mxPoint x="564" y="289.2857142857144"/><mxPoint x="650" y="550"/><mxPoint x="900" y="550"/><mxPoint x="988" y="735"/></Array></mxGeometry></mxCell><mxCell id="SubscriptionWaiterFunction|StateMachine" value="" style="edgeStyle=orthogonalEdgeStyle;rounded=1;orthogonalLoop=1;jettySize=auto;html=1;labelBackgroundColor=none;fontColor=#EA6B66;noEdgeStyle=1;orthogonal=1;" edge="1" parent="1" source="14" target="12"><mxGeometry relative="1" as="geometry"><Array as="points"><mxPoint x="562" y="296.42857142857156"/><mxPoint x="650" y="600"/><mxPoint x="900" y="600"/><mxPoint x="988" y="835"/></Array></mxGeometry></mxCell><mxCell id="codebuild  &#xA;project/servicecatalog-puppet-bootstrap-spoke|StateMachineRole" value="" style="edgeStyle=orthogonalEdgeStyle;rounded=1;orthogonalLoop=1;jettySize=auto;html=1;labelBackgroundColor=none;fontColor=#EA6B66;noEdgeStyle=1;orthogonal=1;" edge="1" parent="1" source="15" target="19"><mxGeometry relative="1" as="geometry"><Array as="points"><mxPoint x="814" y="308.3333333333333"/><mxPoint x="988" y="125"/></Array></mxGeometry></mxCell><mxCell id="codebuild  &#xA;project/servicecatalog-puppet-single-account-run|StateMachineRole" value="" style="edgeStyle=orthogonalEdgeStyle;rounded=1;orthogonalLoop=1;jettySize=auto;html=1;labelBackgroundColor=none;fontColor=#EA6B66;noEdgeStyle=1;orthogonal=1;" edge="1" parent="1" source="15" target="20"><mxGeometry relative="1" as="geometry"><Array as="points"><mxPoint x="816" y="313.88888888888886"/><mxPoint x="988" y="225"/></Array></mxGeometry></mxCell><mxCell id="events  &#xA;rule/stepfunctionsgeteventforcodebuildstartbuildrule|StateMachineRole" value="" style="edgeStyle=orthogonalEdgeStyle;rounded=1;orthogonalLoop=1;jettySize=auto;html=1;labelBackgroundColor=none;fontColor=#EA6B66;noEdgeStyle=1;orthogonal=1;" edge="1" parent="1" source="15" target="21"><mxGeometry relative="1" as="geometry"><Array as="points"><mxPoint x="818" y="319.4444444444444"/><mxPoint x="988" y="325"/></Array></mxGeometry></mxCell><mxCell id="InputValidatorFunction|StateMachineRole" value="" style="edgeStyle=orthogonalEdgeStyle;rounded=1;orthogonalLoop=1;jettySize=auto;html=1;labelBackgroundColor=none;fontColor=#EA6B66;noEdgeStyle=1;orthogonal=1;" edge="1" parent="1" source="15" target="2"><mxGeometry relative="1" as="geometry"><Array as="points"><mxPoint x="812" y="302.77777777777777"/><mxPoint x="988" y="35"/></Array></mxGeometry></mxCell><mxCell id="AccountCreatorFunction|StateMachineRole" value="" style="edgeStyle=orthogonalEdgeStyle;rounded=1;orthogonalLoop=1;jettySize=auto;html=1;labelBackgroundColor=none;fontColor=#EA6B66;noEdgeStyle=1;orthogonal=1;" edge="1" parent="1" source="15" target="4"><mxGeometry relative="1" as="geometry"><Array as="points"><mxPoint x="820" y="324.99999999999994"/><mxPoint x="988" y="415"/></Array></mxGeometry></mxCell><mxCell id="AccountWaiterFunction|StateMachineRole" value="" style="edgeStyle=orthogonalEdgeStyle;rounded=1;orthogonalLoop=1;jettySize=auto;html=1;labelBackgroundColor=none;fontColor=#EA6B66;noEdgeStyle=1;orthogonal=1;" edge="1" parent="1" source="15" target="6"><mxGeometry relative="1" as="geometry"><Array as="points"><mxPoint x="818" y="330.5555555555555"/><mxPoint x="988" y="515"/></Array></mxGeometry></mxCell><mxCell id="ControlTowerAccountCreatorFunction|StateMachineRole" value="" style="edgeStyle=orthogonalEdgeStyle;rounded=1;orthogonalLoop=1;jettySize=auto;html=1;labelBackgroundColor=none;fontColor=#EA6B66;noEdgeStyle=1;orthogonal=1;" edge="1" parent="1" source="15" target="8"><mxGeometry relative="1" as="geometry"><Array as="points"><mxPoint x="816" y="336.11111111111103"/><mxPoint x="988" y="615"/></Array></mxGeometry></mxCell><mxCell id="ControlTowerAccountWaiterFunction|StateMachineRole" value="" style="edgeStyle=orthogonalEdgeStyle;rounded=1;orthogonalLoop=1;jettySize=auto;html=1;labelBackgroundColor=none;fontColor=#EA6B66;noEdgeStyle=1;orthogonal=1;" edge="1" parent="1" source="15" target="10"><mxGeometry relative="1" as="geometry"><Array as="points"><mxPoint x="814" y="341.6666666666666"/><mxPoint x="988" y="715"/></Array></mxGeometry></mxCell><mxCell id="SubscriptionWaiterFunction|StateMachineRole" value="" style="edgeStyle=orthogonalEdgeStyle;rounded=1;orthogonalLoop=1;jettySize=auto;html=1;labelBackgroundColor=none;fontColor=#EA6B66;noEdgeStyle=1;orthogonal=1;" edge="1" parent="1" source="15" target="12"><mxGeometry relative="1" as="geometry"><Array as="points"><mxPoint x="812" y="347.2222222222221"/><mxPoint x="988" y="815"/></Array></mxGeometry></mxCell><mxCell id="iam  aws&#xA;policy/service-role/awslambdabasicexecutionrole|AccountCreationCustomResourceBackerRole" value="" style="edgeStyle=orthogonalEdgeStyle;rounded=1;orthogonalLoop=1;jettySize=auto;html=1;labelBackgroundColor=none;fontColor=#EA6B66;noEdgeStyle=1;orthogonal=1;" edge="1" parent="1" source="16" target="18"><mxGeometry relative="1" as="geometry"><Array as="points"><mxPoint x="314" y="408.2037037037037"/><mxPoint x="400" y="350"/><mxPoint x="650" y="350"/><mxPoint x="650" y="900"/><mxPoint x="900" y="900"/><mxPoint x="900" y="900"/><mxPoint x="1150" y="900"/><mxPoint x="1150" y="900"/><mxPoint x="1400" y="900"/><mxPoint x="1488" y="496.42857142857156"/></Array></mxGeometry></mxCell><mxCell id="states  &#xA;*|AccountCreationCustomResourceBackerRole" value="" style="edgeStyle=orthogonalEdgeStyle;rounded=1;orthogonalLoop=1;jettySize=auto;html=1;labelBackgroundColor=none;fontColor=#EA6B66;noEdgeStyle=1;orthogonal=1;" edge="1" parent="1" source="16" target="22"><mxGeometry relative="1" as="geometry"><Array as="points"><mxPoint x="316" y="416.2037037037037"/><mxPoint x="488" y="425"/></Array></mxGeometry></mxCell><mxCell id="StateMachine|AccountCreationCustomResourceBackerRole" value="" style="edgeStyle=orthogonalEdgeStyle;rounded=1;orthogonalLoop=1;jettySize=auto;html=1;labelBackgroundColor=none;fontColor=#EA6B66;noEdgeStyle=1;orthogonal=1;" edge="1" parent="1" source="16" target="14"><mxGeometry relative="1" as="geometry"><Array as="points"><mxPoint x="312" y="400.2037037037037"/><mxPoint x="488" y="285"/></Array></mxGeometry></mxCell><mxCell id="StateMachine|AccountCreationCustomResourceBacker" value="" style="edgeStyle=orthogonalEdgeStyle;rounded=1;orthogonalLoop=1;jettySize=auto;html=1;labelBackgroundColor=none;fontColor=#EA6B66;noEdgeStyle=1;orthogonal=1;" edge="1" parent="1" source="17" target="14"><mxGeometry relative="1" as="geometry"><Array as="points"><mxPoint x="62" y="359.9074074074074"/><mxPoint x="150" y="322.4537037037037"/><mxPoint x="400" y="322.4537037037037"/><mxPoint x="488" y="265"/></Array></mxGeometry></mxCell><mxCell id="AccountCreationCustomResourceBackerRole|AccountCreationCustomResourceBacker" value="" style="edgeStyle=orthogonalEdgeStyle;rounded=1;orthogonalLoop=1;jettySize=auto;html=1;labelBackgroundColor=none;fontColor=#EA6B66;noEdgeStyle=1;orthogonal=1;" edge="1" parent="1" source="17" target="16"><mxGeometry relative="1" as="geometry"><Array as="points"><mxPoint x="62" y="379.9074074074074"/><mxPoint x="238" y="416.2037037037037"/></Array></mxGeometry></mxCell><mxCell id="25" value="lambda  &#xA;${accountvendingaccountcreationcustomresourcebackerfunctionname}" style="outlineConnect=0;fontColor=#B3B3B3;gradientColor=#aaaaaa;gradientDirection=north;fillColor=#aaaaaa;strokeColor=#ffffff;dashed=0;verticalLabelPosition=bottom;verticalAlign=top;align=center;html=1;fontSize=12;fontStyle=0;aspect=fixed;shape=mxgraph.aws4.resourceIcon;resIcon=mxgraph.aws4.lambda;" vertex="1" parent="1"><mxGeometry x="500" y="500" width="50" height="50" as="geometry"/></mxCell><mxCell id="26" value="lambda  &#xA;*" style="outlineConnect=0;fontColor=#B3B3B3;gradientColor=#aaaaaa;gradientDirection=north;fillColor=#aaaaaa;strokeColor=#ffffff;dashed=0;verticalLabelPosition=bottom;verticalAlign=top;align=center;html=1;fontSize=12;fontStyle=0;aspect=fixed;shape=mxgraph.aws4.resourceIcon;resIcon=mxgraph.aws4.lambda;" vertex="1" parent="1"><mxGeometry x="500" y="600" width="50" height="50" as="geometry"/></mxCell><mxCell id="lambda  &#xA;${accountvendingaccountcreationcustomresourcebackerfunctionname}|AccountCreationCustomResourceBackerRole" value="" style="edgeStyle=orthogonalEdgeStyle;rounded=1;orthogonalLoop=1;jettySize=auto;html=1;labelBackgroundColor=none;fontColor=#EA6B66;noEdgeStyle=1;orthogonal=1;" edge="1" parent="1" source="16" target="25"><mxGeometry relative="1" as="geometry"><Array as="points"><mxPoint x="314" y="424.2037037037037"/><mxPoint x="488" y="525"/></Array></mxGeometry></mxCell><mxCell id="lambda  &#xA;*|AccountCreationCustomResourceBackerRole" value="" style="edgeStyle=orthogonalEdgeStyle;rounded=1;orthogonalLoop=1;jettySize=auto;html=1;labelBackgroundColor=none;fontColor=#EA6B66;noEdgeStyle=1;orthogonal=1;" edge="1" parent="1" source="16" target="26"><mxGeometry relative="1" as="geometry"><Array as="points"><mxPoint x="312" y="432.2037037037037"/><mxPoint x="488" y="625"/></Array></mxGeometry></mxCell></root></mxGraphModel>
            </diagram>
          </mxfile>